# Blender v2.93.4 OBJ File: 'door2.blend'
# www.blender.org
mtllib door.mtl
o Doorframe_Cube
v 0.170115 1.163329 -0.750000
v 0.170115 -0.958059 -0.750000
v 0.170115 1.163329 0.750000
v 0.170115 -0.958059 0.750000
v -0.170115 1.163329 -0.750000
v -0.170115 -0.958059 -0.750000
v -0.170115 1.163329 0.750000
v -0.170115 -0.958059 0.750000
v 0.170115 -0.958059 -0.525000
v 0.170115 -0.958059 0.525000
v 0.170115 0.938329 0.525000
v 0.170115 0.938329 -0.525000
v -0.170115 -0.958059 0.525000
v -0.170115 -0.958059 -0.525000
v -0.170115 0.938329 -0.525000
v -0.170115 0.938329 0.525000
vt 0.562500 0.187500
vt 0.625000 0.187500
vt 0.562500 0.250000
vt 0.375000 0.250000
vt 0.375000 0.500000
vt 0.375000 0.562500
vt 0.375000 0.187500
vt 0.562500 0.687500
vt 0.625000 0.687500
vt 0.562500 0.750000
vt 0.437500 0.062500
vt 0.437500 0.687500
vt 0.375000 0.687500
vt 0.375000 0.062500
vt 0.437500 0.500000
vt 0.437500 0.562500
vt 0.437500 0.750000
vt 0.375000 0.750000
vt 0.625000 0.250000
vt 0.562500 0.125000
vt 0.375000 1.000000
vt 0.562500 0.625000
vt 0.625000 0.500000
vt 0.875000 0.500000
vt 0.875000 0.750000
vt 0.625000 0.750000
vt 0.375000 0.000000
vt 0.437500 0.000000
vt 0.437500 0.187500
vt 0.437500 0.250000
vt 0.437500 1.000000
vn -1.0000 0.0000 0.0000
vn 0.0000 -1.0000 0.0000
vn 1.0000 0.0000 0.0000
vn 0.0000 0.0000 -1.0000
vn 0.0000 1.0000 0.0000
vn 0.0000 0.0000 1.0000
usemtl Material
s off
f 15/1/1 7/2/1 5/3/1
f 6/4/2 2/5/2 9/6/2 14/7/2
f 11/8/3 1/9/3 3/10/3
f 16/11/4 11/12/4 10/13/4 13/14/4
f 2/5/3 1/15/3 12/16/3 9/6/3
f 10/13/3 11/12/3 3/17/3 4/18/3
f 6/4/4 5/19/4 1/15/4 2/5/4
f 16/20/2 15/1/2 12/16/2 11/8/2
f 13/14/2 10/13/2 4/18/2 8/21/2
f 12/22/3 1/9/3 11/8/3
f 1/23/5 5/24/5 7/25/5 3/26/5
f 8/27/1 7/28/1 16/11/1 13/14/1
f 14/7/1 15/29/1 5/30/1 6/4/1
f 14/7/6 9/6/6 12/16/6 15/29/6
f 16/20/1 7/2/1 15/1/1
f 4/18/6 3/26/6 7/31/6 8/21/6
o Box6
v 1.491069 0.223326 -0.147666
v 1.495329 -0.130215 0.205874
v 1.495329 -0.200926 0.135164
v 1.491069 0.152615 -0.218377
v 1.434671 0.152276 -0.218038
v 1.438931 -0.201265 0.135503
v 1.438931 -0.130554 0.206214
v 1.434671 0.222986 -0.147327
vt 0.000000 1.000000
vt 0.000000 0.000000
vt 1.000000 0.000000
vt 1.000000 1.000000
vt 0.000000 1.000000
vt 0.000000 0.000000
vt 1.000000 0.000000
vt 1.000000 1.000000
vt 0.000000 0.000000
vt 1.000000 0.000000
vt 0.000000 1.000000
vt 1.000000 1.000000
vt 0.000000 1.000000
vt 0.000000 0.000000
vt 1.000000 0.000000
vt 1.000000 1.000000
vt 0.000000 1.000000
vt 0.000000 0.000000
vt 1.000000 0.000000
vt 1.000000 1.000000
vn 1.0000 0.0060 -0.0060
vn -1.0000 -0.0060 0.0060
vn -0.0085 0.7071 -0.7071
vn 0.0085 -0.7071 0.7071
vn 0.0000 0.7071 0.7071
vn -0.0000 -0.7071 -0.7071
usemtl Standard1
s 1
f 17/32/7 18/33/7 19/34/7 20/35/7
f 21/36/8 22/37/8 23/38/8 24/39/8
f 21/36/9 24/40/9 17/41/9 20/35/9
f 23/42/10 22/37/10 19/34/10 18/43/10
f 24/44/11 23/45/11 18/46/11 17/47/11
f 20/48/12 19/49/12 22/50/12 21/51/12
o Box
v 0.887315 0.224025 -0.148365
v 0.891575 -0.129516 0.205176
v 0.891575 -0.200227 0.134465
v 0.887315 0.153314 -0.219075
v 0.599025 0.151577 -0.217339
v 0.603285 -0.201963 0.136202
v 0.603285 -0.131253 0.206913
v 0.599025 0.222288 -0.146628
vt 0.000000 1.000000
vt 0.000000 0.000000
vt 1.000000 0.000000
vt 1.000000 1.000000
vt 0.000000 1.000000
vt 0.000000 0.000000
vt 1.000000 0.000000
vt 1.000000 1.000000
vt 0.000000 0.000000
vt 1.000000 0.000000
vt 0.000000 1.000000
vt 1.000000 1.000000
vt 0.000000 1.000000
vt 0.000000 0.000000
vt 1.000000 0.000000
vt 1.000000 1.000000
vt 0.000000 1.000000
vt 0.000000 0.000000
vt 1.000000 0.000000
vt 1.000000 1.000000
vn 1.0000 0.0060 -0.0060
vn -1.0000 -0.0060 0.0060
vn -0.0085 0.7071 -0.7071
vn 0.0085 -0.7071 0.7071
vn 0.0000 0.7071 0.7071
vn -0.0000 -0.7071 -0.7071
usemtl Standard1
s 1
f 25/52/13 26/53/13 27/54/13 28/55/13
f 29/56/14 30/57/14 31/58/14 32/59/14
f 29/56/15 32/60/15 25/61/15 28/55/15
f 31/62/16 30/57/16 27/54/16 26/63/16
f 32/64/17 31/65/17 26/66/17 25/67/17
f 28/68/18 27/69/18 30/70/18 29/71/18
o Box2
v 1.084317 0.223641 -0.147982
v 1.088577 -0.129899 0.205559
v 1.088577 -0.200610 0.134848
v 1.084317 0.152930 -0.218692
v 0.923223 0.151960 -0.217722
v 0.927483 -0.201580 0.135819
v 0.927483 -0.130870 0.206529
v 0.923223 0.222671 -0.147011
vt 0.000000 1.000000
vt 0.000000 0.000000
vt 1.000000 0.000000
vt 1.000000 1.000000
vt 0.000000 1.000000
vt 0.000000 0.000000
vt 1.000000 0.000000
vt 1.000000 1.000000
vt 0.000000 0.000000
vt 1.000000 0.000000
vt 0.000000 1.000000
vt 1.000000 1.000000
vt 0.000000 1.000000
vt 0.000000 0.000000
vt 1.000000 0.000000
vt 1.000000 1.000000
vt 0.000000 1.000000
vt 0.000000 0.000000
vt 1.000000 0.000000
vt 1.000000 1.000000
vn 1.0000 0.0060 -0.0060
vn -1.0000 -0.0060 0.0060
vn -0.0085 0.7071 -0.7071
vn 0.0085 -0.7071 0.7071
vn 0.0000 0.7071 0.7071
vn -0.0000 -0.7071 -0.7071
usemtl Standard1
s 1
f 33/72/19 34/73/19 35/74/19 36/75/19
f 37/76/20 38/77/20 39/78/20 40/79/20
f 37/76/21 40/80/21 33/81/21 36/75/21
f 39/82/22 38/77/22 35/74/22 34/83/22
f 40/84/23 39/85/23 34/86/23 33/87/23
f 36/88/24 35/89/24 38/90/24 37/91/24
o Box1
v 0.564600 0.388908 -0.318198
v 0.564600 -0.318198 0.388909
v 0.564600 -0.388909 0.318198
v 0.564600 0.318198 -0.388909
v 0.064600 -0.034990 -0.035721
v 0.064600 0.035721 0.034990
vt 0.000000 1.000000
vt 0.000000 0.000000
vt 1.000000 0.000000
vt 1.000000 1.000000
vt 0.000000 0.000000
vt 1.000000 0.000000
vt 1.000000 1.000000
vt 0.000000 1.000000
vt 1.000000 0.000000
vt 1.000000 1.000000
vt 0.000000 1.000000
vt 0.000000 0.000000
vt 0.000000 1.000000
vt 1.000000 0.000000
vt 1.000000 1.000000
vn 1.0000 0.0000 0.0000
vn -0.7067 0.5003 -0.5003
vn -0.7075 -0.4997 0.4997
vn -0.0000 -0.7071 -0.7071
vn 0.0000 0.7071 0.7071
usemtl Standard1
s 1
f 41/92/25 42/93/25 43/94/25 44/95/25
f 41/92/26 44/96/26 45/97/26 46/98/26
f 43/99/27 42/93/27 46/100/27 45/101/27
f 44/102/28 43/103/28 45/97/28
f 46/104/29 42/105/29 41/106/29
o Box4
v 1.313669 0.223326 -0.147666
v 1.317929 -0.130215 0.205874
v 1.317929 -0.200926 0.135164
v 1.313669 0.152615 -0.218377
v 1.257271 0.152276 -0.218038
v 1.261531 -0.201265 0.135503
v 1.261531 -0.130554 0.206214
v 1.257271 0.222986 -0.147327
vt 0.000000 1.000000
vt 0.000000 0.000000
vt 1.000000 0.000000
vt 1.000000 1.000000
vt 0.000000 1.000000
vt 0.000000 0.000000
vt 1.000000 0.000000
vt 1.000000 1.000000
vt 0.000000 0.000000
vt 1.000000 0.000000
vt 0.000000 1.000000
vt 1.000000 1.000000
vt 0.000000 1.000000
vt 0.000000 0.000000
vt 1.000000 0.000000
vt 1.000000 1.000000
vt 0.000000 1.000000
vt 0.000000 0.000000
vt 1.000000 0.000000
vt 1.000000 1.000000
vn 1.0000 0.0060 -0.0060
vn -1.0000 -0.0060 0.0060
vn -0.0085 0.7071 -0.7071
vn 0.0085 -0.7071 0.7071
vn 0.0000 0.7071 0.7071
vn -0.0000 -0.7071 -0.7071
usemtl Standard1
s 1
f 47/107/30 48/108/30 49/109/30 50/110/30
f 51/111/31 52/112/31 53/113/31 54/114/31
f 51/111/32 54/115/32 47/116/32 50/110/32
f 53/117/33 52/112/33 49/109/33 48/118/33
f 54/119/34 53/120/34 48/121/34 47/122/34
f 50/123/35 49/124/35 52/125/35 51/126/35
o Box5
v 1.398669 0.223326 -0.147666
v 1.402929 -0.130215 0.205874
v 1.402929 -0.200926 0.135164
v 1.398669 0.152615 -0.218377
v 1.342271 0.152276 -0.218038
v 1.346531 -0.201265 0.135503
v 1.346531 -0.130554 0.206214
v 1.342271 0.222986 -0.147327
vt 0.000000 1.000000
vt 0.000000 0.000000
vt 1.000000 0.000000
vt 1.000000 1.000000
vt 0.000000 1.000000
vt 0.000000 0.000000
vt 1.000000 0.000000
vt 1.000000 1.000000
vt 0.000000 0.000000
vt 1.000000 0.000000
vt 0.000000 1.000000
vt 1.000000 1.000000
vt 0.000000 1.000000
vt 0.000000 0.000000
vt 1.000000 0.000000
vt 1.000000 1.000000
vt 0.000000 1.000000
vt 0.000000 0.000000
vt 1.000000 0.000000
vt 1.000000 1.000000
vn 1.0000 0.0060 -0.0060
vn -1.0000 -0.0060 0.0060
vn -0.0085 0.7071 -0.7071
vn 0.0085 -0.7071 0.7071
vn 0.0000 0.7071 0.7071
vn -0.0000 -0.7071 -0.7071
usemtl Standard1
s 1
f 55/127/36 56/128/36 57/129/36 58/130/36
f 59/131/37 60/132/37 61/133/37 62/134/37
f 59/131/38 62/135/38 55/136/38 58/130/38
f 61/137/39 60/132/39 57/129/39 56/138/39
f 62/139/40 61/140/40 56/141/40 55/142/40
f 58/143/41 57/144/41 60/145/41 59/146/41
o Box3
v 1.223018 0.223453 -0.147793
v 1.227278 -0.130087 0.205746
v 1.227278 -0.200798 0.135036
v 1.223018 0.152742 -0.218504
v 1.124322 0.152148 -0.217909
v 1.128582 -0.201392 0.135630
v 1.128582 -0.130682 0.206341
v 1.124322 0.222858 -0.147199
vt 0.000000 1.000000
vt 0.000000 0.000000
vt 1.000000 0.000000
vt 1.000000 1.000000
vt 0.000000 1.000000
vt 0.000000 0.000000
vt 1.000000 0.000000
vt 1.000000 1.000000
vt 0.000000 0.000000
vt 1.000000 0.000000
vt 0.000000 1.000000
vt 1.000000 1.000000
vt 0.000000 1.000000
vt 0.000000 0.000000
vt 1.000000 0.000000
vt 1.000000 1.000000
vt 0.000000 1.000000
vt 0.000000 0.000000
vt 1.000000 0.000000
vt 1.000000 1.000000
vn 1.0000 0.0060 -0.0060
vn -1.0000 -0.0060 0.0060
vn -0.0085 0.7071 -0.7071
vn 0.0085 -0.7071 0.7071
vn 0.0000 0.7071 0.7071
vn -0.0000 -0.7071 -0.7071
usemtl Standard1
s 1
f 63/147/42 64/148/42 65/149/42 66/150/42
f 67/151/43 68/152/43 69/153/43 70/154/43
f 67/151/44 70/155/44 63/156/44 66/150/44
f 69/157/45 68/152/45 65/149/45 64/158/45
f 70/159/46 69/160/46 64/161/46 63/162/46
f 66/163/47 65/164/47 68/165/47 67/166/47
